<?xml version="1.0" encoding="UTF-8" standalone="no"?>
<svg
   version="1.1"
   width="1024"
   height="1024"
   id="svg212"
   sodipodi:docname="dk_icon.svg"
   inkscape:version="1.2.2 (732a01da63, 2022-12-09)"
   xmlns:inkscape="http://www.inkscape.org/namespaces/inkscape"
   xmlns:sodipodi="http://sodipodi.sourceforge.net/DTD/sodipodi-0.dtd"
   xmlns="http://www.w3.org/2000/svg"
   xmlns:svg="http://www.w3.org/2000/svg">
  <defs
     id="defs216" />
  <sodipodi:namedview
     id="namedview214"
     pagecolor="#ffffff"
     bordercolor="#000000"
     borderopacity="0.25"
     inkscape:showpageshadow="2"
     inkscape:pageopacity="0.0"
     inkscape:pagecheckerboard="0"
     inkscape:deskcolor="#d1d1d1"
     showgrid="false"
     inkscape:zoom="0.70710678"
     inkscape:cx="371.23106"
     inkscape:cy="636.3961"
     inkscape:window-width="1920"
     inkscape:window-height="1009"
     inkscape:window-x="-8"
     inkscape:window-y="-8"
     inkscape:window-maximized="1"
     inkscape:current-layer="svg212" />
  <rect
     style="fill:#ffffff"
     id="rect269"
     width="1023.9936"
     height="1023.9991"
     x="0.0048250896"
     y="1.3889598e-08" />
  <g
     id="g209"
     style="display:inline">
    <path
       d="m 0,0 c 0.66,0 1.32,0 2,0 8,18.687747 8,18.687747 8,24 1.216875,0.103125 2.43375,0.20625 3.6875,0.3125 3.785195,0.500687 6.313105,1.188004 9.3125,3.6875 2.316541,3.205181 4,5.944407 4,10 -0.663867,0.0026 -1.327734,0.0052 -2.011719,0.0078 C 19.019546,38.253836 19.019546,38.253836 14.1875,41.5625 13.432881,42.691733 12.705056,43.839175 12,45 11.535937,45.625195 11.071875,46.250391 10.59375,46.894531 7.2857465,51.553303 6.2114203,55.269654 7,61 7.1069922,61.795352 7.2139844,62.590703 7.3242187,63.410156 8.6100714,71.042694 11.135997,77.919997 16,84 c 0,0.66 0,1.32 0,2 0.61875,0.309375 1.2375,0.61875 1.875,0.9375 C 19.25,87.625 20.625,88.3125 22,89 29.759705,90.385099 35.452519,87.932978 42.132812,84.089844 46.111062,81.190166 47.787862,78.347995 50,74 c 0.66,0 1.32,0 2,0 0.416123,-2.769161 0.808478,-5.538235 1.1875,-8.3125 0.120527,-0.785684 0.241055,-1.571367 0.365234,-2.380859 0.0999,-0.757325 0.199805,-1.514649 0.302735,-2.294922 0.0995,-0.696497 0.198999,-1.392993 0.301513,-2.110596 C 53.946806,56.355793 52.841233,55.67474 51,54 50.95313,51.984375 50.95313,51.984375 52,50 54.546875,48.578125 54.546875,48.578125 57.75,47.25 63.584281,44.541227 66.436948,41.871177 69,36 c 0.66,0.33 1.32,0.66 2,1 0.33,5.61 0.66,11.22 1,17 1.32,0.33 2.64,0.66 4,1 1.75,1.4375 1.75,1.4375 3,3 0,0.66 0,1.32 0,2 -0.698672,0.337734 -1.397344,0.675469 -2.117188,1.023437 -0.910078,0.446016 -1.820156,0.892032 -2.757812,1.351563 -0.904922,0.440859 -1.809844,0.881719 -2.742188,1.335937 -2.542772,1.375599 -4.061507,2.313553 -4.984863,5.116944 -1.186443,5.572818 -1.922483,11.048766 -2.272949,16.734619 -0.07219,0.798574 -0.144375,1.597148 -0.21875,2.419922 -0.446485,7.208385 1.585814,11.993858 6.164062,17.513668 0.678047,0.64067 1.356094,1.28133 2.054688,1.94141 1.024805,0.98807 1.024805,0.98807 2.070312,1.99609 3.470433,3.01222 6.488781,3.03166 10.957032,2.96094 C 95.178645,111.00543 102.62376,103.29463 109,96 c 1.23072,-2.071269 1.23072,-2.071269 0.92969,-4.976563 -0.1444,-9.63322 -0.1444,-9.63322 3.125,-13.375 C 115.95605,75.604871 118.95142,73.816023 122,72 c 2.38241,-1.730112 4.69054,-3.54913 7,-5.375 2.94905,-2.297539 5.88684,-4.549557 9,-6.625 -0.9585,3.346347 -1.97982,6.671988 -3,10 -0.20931,0.71269 -0.41862,1.425381 -0.63428,2.159668 -0.706,2.390821 -1.44034,4.771676 -2.17822,7.152832 -0.33572,1.164749 -0.33572,1.164749 -0.67822,2.353027 C 129.74309,87.238587 127.72734,89.580093 123,93 c -3.74176,3.248339 -5.75205,6.967114 -7.875,11.375 -0.31324,0.62777 -0.62648,1.25555 -0.94922,1.90234 -5.73769,11.68113 -10.34065,23.62136 -14.36328,35.97266 -0.428502,1.29705 -0.857538,2.59393 -1.287109,3.89062 C 94.02066,157.83652 94.02066,157.83652 92,170 c 1.505236,1.39099 1.505236,1.39099 3.4375,2.5625 3.46833,2.24916 3.46833,2.24916 4.5625,4.4375 0.12328,2.10148 0.17558,4.20744 0.1875,6.3125 0.0142,1.13051 0.0284,2.26102 0.043,3.42578 -0.22975,3.25112 -0.704076,5.3965 -2.2305,8.26172 -4.011429,2.67429 -7.360838,2.53462 -12,2 -4.002127,-1.0141 -7.858984,-2.37609 -11.75,-3.75 C 62.925586,189.45464 51.814694,186.70944 40,185 39.240581,184.88431 38.481162,184.76861 37.69873,184.64941 9.7547521,180.58944 -20.175756,181.79799 -48,186 c -1.451823,0.19531 -2.903646,0.39062 -4.355469,0.58594 C -64.886478,188.55309 -78.633835,192.31692 -90,198 c -3.396268,0.36916 -5.287303,0.48288 -8.15625,-1.46094 -2.70621,-3.72677 -2.50488,-6.97851 -2.46875,-11.47656 -0.0322,-0.79857 -0.0644,-1.59715 -0.0977,-2.41992 -0.009,-5.70329 -0.009,-5.70329 2.03223,-8.32276 C -94.8479,171 -94.8479,171 -92,171 c -0.253945,-0.92039 -0.507891,-1.84078 -0.769531,-2.78906 -1.730332,-6.36399 -3.357256,-12.6682 -4.605469,-19.14844 -3.36812,-15.83543 -12.07958,-45.40344 -25.40625,-55.398438 -0.56719,-0.34289 -1.13438,-0.685781 -1.71875,-1.039062 -4.88122,-3.921663 -5.43694,-9.946753 -6.65234,-15.757813 -0.67487,-3.078875 -1.44564,-5.730661 -2.66016,-8.617187 -1.22275,-3.34646 -1.20887,-4.053872 -0.1875,-7.25 0.66645,0.556875 1.33289,1.11375 2.01953,1.6875 5.78345,4.788534 11.64173,9.334486 17.76563,13.683594 C -112,78 -112,78 -110,80 c 0.0728,2.165545 0.0837,4.333337 0.0625,6.5 0.43005,7.0026 2.18757,10.46892 7.20312,15.30078 8.64134,6.95413 8.64134,6.95413 19.10938,9.88672 4.068097,-0.77154 6.357855,-2.19825 9.625,-4.6875 0.66,0 1.32,0 2,0 0.431191,-0.86625 0.431191,-0.86625 0.871094,-1.75 0.712929,-1.42093 1.433321,-2.83815 2.164062,-4.25 0.508535,-0.99 0.508535,-0.99 1.027344,-2 0.512402,-0.99 0.512402,-0.99 1.035156,-2 4.453245,-9.870396 1.965677,-22.580742 -1.222656,-32.5 -2.743774,-3.658366 -5.532095,-4.218487 -9.875,-5.5 0.75,-2.375 0.75,-2.375 2,-5 0.66,-0.309375 1.32,-0.61875 2,-0.9375 2.23696,-0.929704 2.23696,-0.929704 3.125,-3.5 1.183262,-4.817565 2.056861,-9.671071 2.875,-14.5625 3,1 3,1 4.035156,2.890625 0.339024,0.778594 0.678047,1.557187 1.027344,2.359375 2.92663,5.663571 7.163301,7.518805 12.9375,9.75 -0.585597,3.25107 -0.712878,3.796914 -3.5625,5.8125 -2.743816,2.000793 -2.743816,2.000793 -2.9375,5.3125 0.623737,4.833966 1.942583,9.267641 3.5,13.875 0.66,0 1.32,0 2,0 0.930162,1.359696 1.794194,2.764919 2.625,4.1875 3.648185,5.691886 8.008108,8.690203 14.375,10.8125 4.642216,0.539381 8.052849,0.49179 12.25,-1.6875 C -14.595575,82.296279 -9.19327,76.321294 -7.6450195,66.822021 -6.996831,59.113392 -6.7053137,51.701807 -11.125,45.0625 -15.668385,39.742077 -20.097703,37.821702 -27,37 c 0,-3.232091 0.47669,-5.355207 2.53125,-7.886719 3.640803,-3.44576 6.176039,-5.324896 11.21875,-5.800781 C -10.954334,23.069089 -10.954334,23.069089 -9,22 -7.493769,19.148264 -6.7196153,16.383525 -5.90625,13.265625 -4.5854077,8.506038 -2.3372208,4.3296057 0,0 Z"
       fill="#191a1c"
       transform="translate(526,221)"
       id="path112" />
    <path
       d="m 0,0 c 0.33,50.16 0.66,100.32 1,152 2.64,0.33 5.28,0.66 8,1 0,0.66 0,1.32 0,2 -7.59,0 -15.18,0 -23,0 -0.33,-4.29 -0.66,-8.58 -1,-13 -1.32,1.65 -2.64,3.3 -4,5 -2.4375,1.73047 -2.4375,1.73047 -5,3.1875 -1.268437,0.73283 -1.268437,0.73283 -2.5625,1.48047 -1.206562,0.65935 -1.206562,0.65935 -2.4375,1.33203 -0.62447,0.35054 -1.24894,0.70109 -1.892334,1.06226 -7.330052,3.26129 -19.77722,1.85018 -27.170166,-0.62476 -12.671707,-5.64931 -20.685686,-14.22576 -25.8125,-27.125 -0.729284,-2.097 -1.440399,-4.20049 -2.125,-6.3125 -0.246211,-0.67289 -0.492422,-1.34578 -0.746094,-2.03906 C -89.641472,108.89541 -89.019675,96.908042 -86,88 c 0.268125,-0.858516 0.53625,-1.717031 0.8125,-2.601563 5.258582,-15.907209 16.028329,-26.255428 30.808594,-33.722656 8.264894,-3.499992 17.764307,-4.522977 26.382812,-1.6875 C -23.414423,52.193765 -20.021254,54.782997 -16,58 c 0,-14.85 0,-29.7 0,-45 -2.568938,-1.284469 -4.765763,-1.329771 -7.625,-1.5625 -1.002891,-0.08379 -2.005781,-0.167578 -3.039062,-0.253906 C -27.820352,11.092715 -27.820352,11.092715 -29,11 -29.5625,9.0625 -29.5625,9.0625 -30,7 -28.395371,5.395371 -26.536102,5.8408917 -24.3125,5.75 -18.110636,5.2710603 -12.823365,3.3292157 -7.0664062,1.0585937 -4,0 -4,0 0,0 Z"
       fill="#1e1e1e"
       transform="translate(516,453)"
       id="path114" />
    <path
       d="M 0,0 C -1.5236719,1.2162305 -1.5236719,1.2162305 -3.078125,2.4570313 -11.676403,9.3574667 -20.012152,16.398095 -28,24 c -0.787617,0.734766 -1.575234,1.469531 -2.386719,2.226562 -17.870981,17.153647 -30.055875,39.952421 -38.878906,62.875 -0.630695,1.630414 -1.289231,3.250009 -1.953125,4.867188 -12.256468,32.31251 -8.334892,78.48395 5.53125,109.71875 0.893194,1.77217 1.789441,3.54279 2.6875,5.3125 0.659037,1.44678 1.312113,2.89627 1.960938,4.34766 C -52.769268,231.67616 -41.764179,247.33222 -28,262 c 0.466479,0.50048 0.932959,1.00096 1.413574,1.5166 33.9835327,36.17926 80.901088,52.67133 129.695806,54.37012 1.2839,0.0374 2.56781,0.0748 3.89062,0.11328 0,3.3 0,6.6 0,10 C 68.118371,334.41078 25.495062,320.49663 -6.1875,298.1875 -23.326601,285.7263 -38.415913,271.02013 -51,254 c -0.782461,-1.0493 -1.564922,-2.09859 -2.371094,-3.17969 C -59.483211,242.32479 -64.325883,233.34367 -69,224 c -0.568477,-1.11375 -1.136953,-2.2275 -1.722656,-3.375 C -74.919415,212.03828 -77.5866,203.21275 -80,194 c -0.188364,-0.71237 -0.376729,-1.42474 -0.570801,-2.15869 C -87.10556,166.75995 -89.466288,138.35386 -83,113 c 0.204961,-1.11762 0.409922,-2.23523 0.621094,-3.38672 C -79.407265,93.426143 -72.762927,78.412026 -65,64 c 0.320815,-0.606826 0.641631,-1.213652 0.972168,-1.838867 C -56.567131,48.118797 -46.915208,36.453058 -36,25 c 0.765703,-0.830156 1.531406,-1.660313 2.320313,-2.515625 C -28.594931,17.141072 -23.083684,12.552204 -17.25,8.0625 -16.528608,7.5063501 -15.807217,6.9502002 -15.063965,6.3771973 -4.5830976,-1.5276992 -4.5830976,-1.5276992 0,0 Z"
       fill="#1e1d1e"
       transform="translate(412,400)"
       id="path116" />
    <path
       d="m 0,0 c 5.6709125,4.0813386 10.411041,9.152128 12.625,15.859375 0.280884,2.825272 0.280884,2.825272 0.322266,5.948486 0.01921,1.175046 0.03843,2.350092 0.05823,3.560746 0.0085,1.261523 0.017,2.523047 0.02576,3.822799 0.0114,1.305715 0.0228,2.611429 0.03455,3.956711 0.02096,2.761272 0.03268,5.522428 0.03967,8.283768 0.01096,3.520817 0.059,7.040082 0.115944,10.560414 0.04644,3.378836 0.05016,6.757469 0.05984,10.136607 0.02469,1.255451 0.04939,2.510903 0.07483,3.804398 C 13.32175,72.710613 12.824936,77.075534 8.2623401,82.25029 7.7220105,82.781288 7.1816919,83.312286 6.625,83.859375 5.7078119,84.785483 5.7078119,84.785483 4.7720947,85.730301 0.88187506,89.437294 -2.5464336,90.318948 -7.875,90.546875 -16.102233,90.119363 -20.492992,87.03048 -26.0625,81.234375 -36.882737,68.091987 -37.615838,51.126787 -36.375,34.859375 -34.537245,21.248237 -29.252946,9.0041728 -18.25,0.421875 -12.709146,-2.391552 -5.6084912,-2.6935517 0,0 Z"
       fill="#f5f5f5"
       transform="translate(488.375,509.14062)"
       id="path118" />
    <path
       d="M 0,0 C 0,20.13 0,40.26 0,61 2.64,58.69 5.28,56.38 8,54 8.9796875,53.159531 9.959375,52.319062 10.96875,51.453125 11.804063,50.726094 12.639375,49.999062 13.5,49.25 14.355938,48.512656 15.211875,47.775312 16.09375,47.015625 18.34356,45.099105 18.34356,45.099105 18,42 c -2.31,-0.33 -4.62,-0.66 -7,-1 0,-0.99 0,-1.98 0,-3 8.91,0 17.82,0 27,0 -2,2 -2,2 -4.636719,3.179687 -4.390879,2.376481 -7.604104,5.492267 -11.175781,8.945313 -1.051875,1.001722 -1.051875,1.001722 -2.125,2.023682 C 14.963765,57.020636 9.924906,61.951971 5,67 c 1.5311893,5.055814 4.6118892,8.334905 8.0625,12.1875 0.587813,0.66564 1.175625,1.331279 1.78125,2.01709 1.1781,1.331807 2.359196,2.660972 3.543457,3.987305 1.347148,1.51029 2.682606,3.030997 4.015137,4.554199 C 24.56581,92.199634 26.772738,94.604228 29,97 c 0.495,0.544951 0.99,1.089902 1.5,1.651367 8.538034,9.654253 8.538034,9.654253 20.5,13.348633 0.33,0.99 0.66,1.98 1,3 -11.22,0 -22.44,0 -34,0 0.495,-1.485 0.495,-1.485 1,-3 1.65,0.33 3.3,0.66 5,1 -2.343429,-5.29533 -5.506923,-9.35199 -9.1875,-13.75 C 9.8167494,93.209738 4.8982593,87.122824 0,81 c 0,10.23 0,20.46 0,31 1.98,0.66 3.96,1.32 6,2 0,0.33 0,0.66 0,1 -9.24,0 -18.48,0 -28,0 0.33,-0.99 0.66,-1.98 1,-3 2.97,-0.495 2.97,-0.495 6,-1 0,-32.01 0,-64.02 0,-97 -3.3,-0.66 -6.6,-1.32 -10,-2 0,-1.32 0,-2.64 0,-4 0.654844,-0.074766 1.309688,-0.1495313 1.984375,-0.2265625 6.964971,-1.0034281 12.408385,-3.1754841 18.5820313,-6.53125 C -2,0 -2,0 0,0 Z"
       fill="#202121"
       transform="translate(561,493)"
       id="path120" />
    <path
       d="M 0,0 C 27.259979,17.823832 43.238868,55.284149 49.9375,85.8125 56.12162,117.3344 52.080875,153.0014 38,182 c -0.295679,0.61182 -0.591357,1.22364 -0.895996,1.854 -10.187023,21.00134 -22.088886,39.83312 -38.506836,56.51807 -1.433473,1.46108 -2.8431219,2.94545 -4.2495117,4.43262 C -11.891524,251.29667 -18.724702,256.7439 -26,262 c -0.552202,0.40718 -1.104404,0.81437 -1.67334,1.23389 C -38.94871,271.48504 -51.270492,277.33172 -64,283 c -0.696416,0.31985 -1.392832,0.6397 -2.110352,0.96924 C -102.08758,300.30113 -148.25411,300.32449 -185,287 c -23.42489,-8.80416 -43.09734,-22.69161 -61,-40 -0.73605,-0.68449 -1.47211,-1.36898 -2.23047,-2.07422 C -265.53088,228.45413 -278.71614,204.57007 -286,182 c 0.33,-0.99 0.66,-1.98 1,-3 0.47309,0.96938 0.94617,1.93875 1.43359,2.9375 C -260.42012,229.02496 -228.3381,263.90637 -178,282 c 16.63054,5.54978 32.88243,7.56959 50.3125,7.4375 0.85534,-0.003 1.71069,-0.006 2.59195,-0.009 12.79123,-0.0672 24.7574,-0.84464 37.09555,-4.42828 1.641457,-0.43018 3.283403,-0.8585 4.925781,-1.28516 C -39.964668,272.06833 -1.7948004,244.21591 20.845947,205.63232 21.914505,203.76387 22.962898,201.88609 24,200 c 0.509744,-0.92667 0.509744,-0.92667 1.029785,-1.87207 C 45.130418,161.0028 54.310165,116.15864 42.300781,74.890625 34.485192,49.768522 22.577979,27.632909 5,8 0,2.3392674 0,2.3392674 0,0 Z"
       fill="#2c2d2d"
       transform="translate(644,407)"
       id="path122" />
    <path
       d="M 0,0 C 2.4574621,2.2115847 3.7413304,4.2333243 5.0585937,7.2539062 5.437981,8.0992896 5.8173682,8.9446729 6.2082519,9.8156738 6.8167297,11.175353 6.8167297,11.175353 7.4375,12.5625 c 19.428661,41.929176 53.913572,72.814439 96.92188,89.12891 18.41647,6.61965 37.2378,9.18593 56.70312,9.87109 1.15178,0.0432 2.30355,0.0864 3.49023,0.13086 2.81566,0.10515 5.6314,0.20729 8.44727,0.30664 0,0.33 0,0.66 0,1 -0.5659,0.13277 -1.1318,0.26555 -1.71484,0.40234 -1.10022,0.26491 -1.10022,0.26491 -2.22266,0.53516 -1.09635,0.26104 -1.09635,0.26104 -2.21484,0.52734 C 165.0003,114.83888 165.0003,114.83888 164,116 c -17.08009,1.14435 -34.50445,0.80831 -51,-4 -0.80373,-0.23074 -1.60746,-0.46148 -2.43555,-0.69922 C 70.612645,99.437636 34.423043,70.730682 14.182617,34.222168 0,7.5726672 0,7.5726672 0,0 Z"
       fill="#242423"
       transform="translate(358,586)"
       id="path124" />
    <path
       d="M 0,0 C 24.834252,16.23778 40.64559,49.874334 47.941406,77.574219 49.275479,84.127117 48.845272,89.58413 47,96 46.67,96 46.34,96 46,96 45.948437,95.195625 45.896875,94.39125 45.84375,93.5625 42.779471,61.805431 25.972422,31.424175 5,8 0,2.3392674 0,2.3392674 0,0 Z"
       fill="#2d2d2d"
       transform="translate(644,407)"
       id="path126" />
    <path
       d="M 0,0 C 2.4574621,2.2115847 3.7413304,4.2333243 5.0585937,7.2539062 5.437981,8.0992896 5.8173682,8.9446729 6.2082519,9.8156738 6.8167297,11.175353 6.8167297,11.175353 7.4375,12.5625 16.591714,32.318294 29.882923,48.605469 44,65 42.68,65.99 41.36,66.98 40,68 21.410719,50.812704 8.101472,26.807874 0,3 0,2.01 0,1.02 0,0 Z"
       fill="#272626"
       transform="translate(358,586)"
       id="path128" />
    <path
       d="m 0,0 c 0.66,0.33 1.32,0.66 2,1 2.398996,8.589525 2.4195476,17.711431 2.4375,26.5625 0.00306,0.660493 0.00612,1.320987 0.00928,2.001495 C 4.4637995,43.758587 2.1960057,57.167076 -1,71 -2.98,71.495 -2.98,71.495 -5,72 -5.1895011,67.451973 -4.7568899,63.866155 -3.5744629,59.438477 -0.64008898,46.982664 -0.77529891,34.458514 -0.9375,21.75 -0.96521167,19.0998 -0.98984252,16.449655 -1.0086822,13.799377 -1.0208578,12.166636 -1.0383801,10.533922 -1.0619965,8.9013062 -1.0909343,5.6571474 -1.0340358,3.1021073 0,0 Z"
       fill="#292a2a"
       transform="translate(692,493)"
       id="path130" />
    <path
       d="M 0,0 C 5.1155934,-0.08404589 9.86567,0.16972021 14.9375,0.9375 26.220121,2.5209767 37.626005,2.6653107 49,3 49,3.33 49,3.66 49,4 48.434102,4.1327734 47.868203,4.2655469 47.285156,4.4023437 46.184941,4.6672461 46.184941,4.6672461 45.0625,4.9375 44.331602,5.1115234 43.600703,5.2855469 42.847656,5.4648437 41.000301,5.8388757 41.000301,5.8388757 40,7 35.74767,7.2687594 31.489059,7.2714816 27.229248,7.295166 25.102016,7.3121839 22.97642,7.3560149 20.849609,7.4003906 12.868664,7.4894236 6.1900829,6.8281485 -1,3 -0.67,2.01 -0.34,1.02 0,0 Z"
       fill="#1f201f"
       transform="translate(482,695)"
       id="path132" />
    <path
       d="m 0,0 c 0.66,0.33 1.32,0.66 2,1 -0.8752062,5.8539435 -3.8223162,9.628055 -7.1875,14.375 -0.6227783,0.883975 -1.2455566,1.767949 -1.887207,2.678711 C -13.057204,26.371831 -19.77012,33.763186 -27,41 c -0.876562,0.890742 -1.753125,1.781484 -2.65625,2.699219 C -31.423255,45.481779 -33.200288,47.25059 -35,49 c -0.495,-1.485 -0.495,-1.485 -1,-3 1.152344,-1.761719 1.152344,-1.761719 2.9375,-3.6875 0.982266,-1.073145 0.982266,-1.073145 1.984375,-2.167969 C -29.20087,38.207289 -27.270253,36.35493 -25.3125,34.5 -15.20426,24.509298 -7.4431875,12.029394 0,0 Z"
       fill="#2a2a2a"
       transform="translate(668,608)"
       id="path134" />
    <path
       d="m 0,0 c 15.549294,10.166846 27.511248,28.248844 35,45 -0.66,0.66 -1.32,1.32 -2,2 0,-1.32 0,-2.64 0,-4 -0.610291,-0.09193 -1.220581,-0.183853 -1.849365,-0.278564 -2.715107,-0.91079 -3.177912,-1.797753 -4.560791,-4.264405 C 25.949341,37.350774 25.949341,37.350774 25.295898,36.222168 24.847627,35.426978 24.399355,34.631787 23.9375,33.8125 17.44352,22.737513 9.8852054,12.869308 1.1445312,3.453125 0,2 0,2 0,0 Z"
       fill="#353535"
       transform="translate(644,407)"
       id="path136" />
    <path
       d="M 0,0 C 2.4889843,2.2351515 3.7814496,4.3096155 5.1289062,7.359375 5.5198144,8.2211133 5.9107227,9.0828516 6.3134766,9.9707031 6.7256543,10.887871 7.137832,11.805039 7.5625,12.75 11.097497,20.478656 14.940855,27.543588 20.127197,34.291992 21.359375,35.96875 21.359375,35.96875 23,39 22.265625,41.90625 22.265625,41.90625 21,44 17.007679,39.482867 14.382602,34.440413 11.625,29.125 10.900265,27.734021 10.900265,27.734021 10.160889,26.314941 0,6.5323481 0,6.5323481 0,0 Z"
       fill="#2d2c2c"
       transform="translate(358,586)"
       id="path138" />
    <path
       d="M 0,0 C -1.0157812,0.81082031 -2.0315625,1.6216406 -3.078125,2.4570313 -11.671581,9.3554572 -19.990775,16.430675 -28,24 c -1.32,-0.66 -2.64,-1.32 -4,-2 4.350989,-5.424968 8.939164,-9.596476 14.5,-13.75 0.733477,-0.5633203 1.466953,-1.1266406 2.222656,-1.7070313 C -4.6030583,-1.5343528 -4.6030583,-1.5343528 0,0 Z"
       fill="#383838"
       transform="translate(412,400)"
       id="path140" />
    <path
       d="m 0,0 c 0,0.66 0,1.32 0,2 0.66,0.66 1.32,1.32 2,2 -13.432268,3.8015853 -27.162878,3.1190172 -41,3 0,-0.33 0,-0.66 0,-1 6.93,0 13.86,0 21,0 0.33,-0.66 0.66,-1.32 1,-2 0.66,-0.33 1.32,-0.66 2,-1 -6.27,-0.33 -12.54,-0.66 -19,-1 0,-0.33 0,-0.66 0,-1 4.19919,-0.14327545 8.398409,-0.28566596 12.597656,-0.42724609 1.427743,-0.0482608 2.855477,-0.096761 4.283203,-0.14550782 2.055318,-0.0701327 4.110663,-0.13939701 6.166016,-0.20849609 C -9.099292,0.1559082 -9.099292,0.1559082 -7.2080078,0.09179688 -4.8061268,0.02306725 -2.4028641,0 0,0 Z"
       fill="#343434"
       transform="translate(540,696)"
       id="path142" />
    <path
       d="m 0,0 c 1.1666016,0.00322266 2.3332031,0.00644531 3.5351563,0.00976562 1.2233203,0.00837891 2.4466406,0.01675782 3.7070312,0.02539063 1.2310547,0.0045117 2.4621094,0.0090234 3.7304685,0.01367187 3.048225,0.01181483 6.096355,0.02828785 9.144531,0.04882813 0,0.33 0,0.66 0,0.99999995 C 19.551289,1.2304297 18.985391,1.3632031 18.402344,1.5 17.668867,1.6766016 16.935391,1.8532031 16.179687,2.0351563 15.448789,2.2091797 14.717891,2.3832031 13.964844,2.5625 12.117489,2.9365319 12.117489,2.9365319 11.117188,4.0976562 9.6284689,4.1843506 8.1357425,4.2046912 6.6445312,4.1953125 5.7454102,4.1920898 4.8462891,4.1888672 3.9199219,4.1855469 2.9743945,4.177168 2.0288672,4.1687891 1.0546875,4.1601562 c -0.94939453,-0.00451 -1.89878906,-0.00902 -2.8769531,-0.013672 -2.3535776,-0.011827 -4.7070317,-0.028308 -7.0605469,-0.048828 0.33,-0.99 0.66,-1.9799999 1,-3 C -5.1687996,-0.25935022 -3.0343493,-0.01472985 0,0 Z"
       fill="#171717"
       transform="translate(510.88281,697.90234)"
       id="path144" />
    <path
       d="m 0,0 c 0.66,0.33 1.32,0.66 2,1 -4.1761967,9.09172 -12.953423,16.068106 -20,23 -0.33,-0.99 -0.66,-1.98 -1,-3 1.152344,-1.761719 1.152344,-1.761719 2.9375,-3.6875 0.644531,-0.70125 1.289062,-1.4025 1.953125,-2.125 2.72755,-2.82857 5.5085062,-5.5988777 8.3085938,-8.3554688 C -3.6885348,4.6831297 -1.8073392,2.4097857 0,0 Z"
       fill="#242424"
       transform="translate(651,633)"
       id="path146" />
    <path
       d="m 0,0 c 0.66,0.33 1.32,0.66 2,1 0.9079403,3.3133552 1.1197343,6.4411874 1.0976563,9.863281 -0.00483,1.329346 -0.00483,1.329346 -0.00977,2.685547 -0.00838,0.912012 -0.016758,1.824024 -0.025391,2.763672 -0.00451,0.931348 -0.00902,1.862695 -0.013672,2.822266 C 3.0370923,21.423244 3.0206736,23.711588 3,26 2.01,26 1.02,26 0,26 -2.5365854,7.6097561 -2.5365854,7.6097561 0,0 Z"
       fill="#212222"
       transform="translate(692,493)"
       id="path148" />
    <path
       d="m 0,0 c 7.59,0 15.18,0 23,0 0,0.66 0,1.32 0,2 0.99,0.66 1.98,1.32 3,2 C 12.652928,4.2184066 -0.66815423,3.565393 -14,3 -14,2.67 -14,2.34 -14,2 -9.38,2 -4.76,2 0,2 0,1.34 0,0.68 0,0 Z"
       fill="#212121"
       transform="translate(533,400)"
       id="path150" />
    <path
       d="m 0,0 c -1.4893136,2.9786271 -2.473943,4.7145198 -5,7 -3.7007661,0.4425988 -7.290363,0.2878167 -11,0 -0.5625,-1.9375 -0.5625,-1.9375 -1,-4 1.718673,-1.7186734 4.092132,-1.329206 6.4375,-1.5 C -6.8388903,1.2281328 -3.6181017,0 0,0 Z"
       fill="#2f3031"
       transform="translate(503,457)"
       id="path152" />
    <path
       d="m 0,0 c 8.1689595,5.3412427 13.860919,12.530784 20,20 -0.99,0.99 -1.98,1.98 -3,3 C 16.359336,22.154375 15.718672,21.30875 15.058594,20.4375 10.615716,14.602888 6.1781366,8.8667968 1.1796875,3.4882813 0,2 0,2 0,0 Z"
       fill="#343535"
       transform="translate(644,407)"
       id="path154" />
    <path
       d="M 0,0 C 0.66,0.99 1.32,1.98 2,3 0.12922332,3.535805 -1.7468917,4.0529889 -3.625,4.5625 -4.6691406,4.8525391 -5.7132812,5.1425781 -6.7890625,5.4414062 -10.190229,6.0330934 -12.654483,5.758518 -16,5 c 0.5625,-1.9375 0.5625,-1.9375 2,-4 4.6144371,-1.08574991 9.2749252,-1.3705941 14,-1 z"
       fill="#232323"
       transform="translate(555,694)"
       id="path156" />
    <path
       d="M 0,0 C 2.3961413,-0.05425226 4.7910385,-0.09379027 7.1875,-0.125 8.1978027,-0.1501367 8.1978027,-0.1501367 9.2285156,-0.1757813 13.288078,-0.21538674 16.349988,0.19979998 20,2 18.625,4 18.625,4 16,6 12.641953,6.357911 9.3646364,6.2311582 6,6 6.66,4.68 7.32,3.36 8,2 5.36,1.67 2.72,1.34 0,1 0,0.67 0,0.34 0,0 Z"
       fill="#2b2c2e"
       transform="translate(470,502)"
       id="path158" />
    <path
       d="M 0,0 C 0.66,0 1.32,0 2,0 2.2570697,5.9126034 1.2982126,11.239182 0,17 -1.32,17.33 -2.64,17.66 -4,18 -4.3987301,11.886138 -3.1211571,6.7370155 -1,1 -0.67,0.67 -0.34,0.34 0,0 Z"
       fill="#272626"
       transform="translate(691,547)"
       id="path160" />
    <path
       d="m 0,0 c 1.9970194,0.26556108 3.9776482,0.64787339 5.953125,1.0429687 -0.639375,0.28875 -1.27875,0.5775 -1.9375,0.875 -2.2145608,0.9532346 -2.2145608,0.9532346 -3.0625,3.125 1.4540625,0.185625 1.4540625,0.185625 2.9375,0.375 1.5159375,0.309375 1.5159375,0.309375 3.0625,0.625 0.33,0.66 0.66,1.32 1,2.0000001 -5.3799284,-0.3399084 -9.5327355,-0.685578 -14,-4.0000001 C -4.2824373,1.6168668 -3.1231782,0.0655629 0,0 Z"
       fill="#202020"
       transform="translate(480.04687,692.95703)"
       id="path162" />
    <path
       d="M 0,0 C 0.99,0.33 1.98,0.66 3,1 1.6181155,4.2104388 0.07578097,6.0493636 -2.625,8.25 -3.2566406,8.7707813 -3.8882813,9.2915625 -4.5390625,9.828125 -5.0211719,10.214844 -5.5032812,10.601563 -6,11 -6.99,10.01 -7.98,9.02 -9,8 -6.03,5.36 -3.06,2.72 0,0 Z"
       fill="#2d2d2d"
       transform="translate(389,413)"
       id="path164" />
    <path
       d="M 0,0 C 1.2258984,0.15275391 1.2258984,0.15275391 2.4765625,0.30859375 3.4162891,0.43427734 3.4162891,0.43427734 4.375,0.5625 c 0,0.66 0,1.32 0,2 -10.9397182,1.4656082 -21.989541,1.0947042 -33,1 0,-0.33 0,-0.66 0,-1 6.93,0 13.86,0 21,0 0.33,-0.66 0.66,-1.32 1,-2 C -4.104464,-0.69776798 -2.7707902,-0.35624445 0,0 Z"
       fill="#3e3d3d"
       transform="translate(529.625,699.4375)"
       id="path166" />
    <path
       d="M 0,0 C 2.447877,2.2040038 3.7389836,4.2163391 5.0429687,7.2304687 5.3942383,8.0329102 5.7455078,8.8353516 6.1074219,9.6621094 6.4638477,10.495488 6.8202734,11.328867 7.1875,12.1875 7.5555273,13.03248 7.9235547,13.877461 8.3027344,14.748047 9.2081722,16.829378 10.106978,18.913319 11,21 10.01,21.33 9.02,21.66 8,22 6.6579125,18.899546 5.3278625,15.79407 4,12.6875 3.6184375,11.806426 3.236875,10.925352 2.84375,10.017578 2.4828125,9.1700195 2.121875,8.3224609 1.75,7.4492187 1.4148437,6.6689331 1.0796875,5.8886475 0.734375,5.0847168 0,3 0,3 0,0 Z"
       fill="#484948"
       transform="translate(358,586)"
       id="path168" />
    <path
       d="m 0,0 c 0,1.32 0,2.64 0,4 -5.4489387,1.1987665 -8.2216909,0.9136031 -13,-2 0,-0.33 0,-0.66 0,-1 1.413778,-0.36552803 2.831206,-0.71695495 4.25,-1.0625 0.7889063,-0.19722656 1.5778125,-0.39445313 2.390625,-0.59765625 C -3.8960518,-1.0149727 -2.3439587,-0.76877544 0,0 Z"
       fill="#333333"
       transform="translate(564,692)"
       id="path170" />
    <path
       d="M 0,0 C 1.258125,-0.04125 2.51625,-0.0825 3.8125,-0.125 4.5201953,-0.14820313 5.2278906,-0.17140625 5.9570312,-0.1953125 8,0 8,0 11,2 10.01,2.495 10.01,2.495 9,3 9,3.99 9,4.98 9,6 5.5897826,5.2130267 2.3111483,4.1288006 -1,3 -0.67,2.01 -0.34,1.02 0,0 Z"
       fill="#181a19"
       transform="translate(482,695)"
       id="path172" />
    <path
       d="M 0,0 C 0.66,0.33 1.32,0.66 2,1 1.5526953,1.4357031 1.1053906,1.8714062 0.64453125,2.3203125 -2.3084154,5.2291853 -5.1426841,8.0985495 -7.6875,11.375 -10.069705,14.079124 -10.667261,14.396599 -14,15 -9.5915656,9.7098788 -4.9244021,4.8119157 0,0 Z"
       fill="#f0f0ef"
       transform="translate(579,546)"
       id="path174" />
    <path
       d="M 0,0 C 3.5358601,3.1732078 5.5857803,5.1674369 6,10 2.1911836,8.5552765 0.70257114,6.6739693 -1,3 -0.67,2.01 -0.34,1.02 0,0 Z"
       fill="#2f2f2f"
       transform="translate(663,428)"
       id="path176" />
    <path
       d="M 0,0 C 0.66,0 1.32,0 2,0 2.0815957,4.1613826 1.9824852,7.9472484 1,12 -1.8086289,9.1913711 -1.7271118,6.8886571 -2,3 -1.34,2.01 -0.68,1.02 0,0 Z"
       fill="#20201f"
       transform="translate(691,547)"
       id="path178" />
    <path
       d="M 0,0 C 0,1.65 0,3.3 0,5 -2.31,5.66 -4.62,6.32 -7,7 -7,3 -7,3 -5,1 -2,0 -2,0 0,0 Z"
       fill="#323233"
       transform="translate(585,683)"
       id="path180" />
    <path
       d="M 0,0 C 0.93065133,2.6058237 1.1491741,3.6419822 0.0625,6.25 -0.4634375,7.11625 -0.4634375,7.11625 -1,8 -1.99,8 -2.98,8 -4,8 -3.67,5.69 -3.34,3.38 -3,1 -2.01,0.67 -1.02,0.34 0,0 Z"
       fill="#262626"
       transform="translate(685,575)"
       id="path182" />
    <path
       d="M 0,0 C -2.5892633,2.5892633 -4.0270528,2.3739804 -7.625,2.625 -8.6278906,2.6997656 -9.6307813,2.7745313 -10.664063,2.8515625 -11.820352,2.9250391 -11.820352,2.9250391 -13,3 -9.0466404,-1.2504329 -5.5354584,-1.4234036 0,0 Z"
       fill="#eeeeec"
       transform="translate(558,691)"
       id="path184" />
    <path
       d="M 0,0 C 2.5,1.3125 2.5,1.3125 5,3 5,6 5,6 3.5,7.6875 3.005,8.120625 2.51,8.55375 2,9 0.50178941,5.6290262 0,3.7955788 0,0 Z"
       fill="#292929"
       transform="translate(391,282)"
       id="path186" />
    <path
       d="M 0,0 C 2.64,0 5.28,0 8,0 7.01,0.495 7.01,0.495 6,1 6,1.66 6,2.32 6,3 3.69,3.33 1.38,3.66 -1,4 -0.67,2.68 -0.34,1.36 0,0 Z"
       fill="#424243"
       transform="translate(487,459)"
       id="path188" />
    <path
       d="M 0,0 C 0,0.66 0,1.32 0,2 -5.625,5 -5.625,5 -9,5 -9,4.34 -9,3.68 -9,3 -5.6331609,0.56839395 -4.2664964,0 0,0 Z"
       fill="#e9e9e8"
       transform="translate(608,677)"
       id="path190" />
    <path
       d="M 0,0 C 0.99,0.33 1.98,0.66 3,1 4.1875,4.0625 4.1875,4.0625 5,7 3.68,7 2.36,7 1,7 0.67,4.69 0.34,2.38 0,0 Z"
       fill="#363739"
       transform="translate(458,256)"
       id="path192" />
    <path
       d="M 0,0 C 0.66,0.99 1.32,1.98 2,3 -1.75,6 -1.75,6 -4,6 -3.6875,4.125 -3.6875,4.125 -3,2 -2.01,1.34 -1.02,0.68 0,0 Z"
       fill="#262727"
       transform="translate(618,664)"
       id="path194" />
    <path
       d="M 0,0 C 0.99,0.33 1.98,0.66 3,1 2.25,5.75 2.25,5.75 0,8 -1.125,6.25 -1.125,6.25 -2,4 -1.125,1.75 -1.125,1.75 0,0 Z"
       fill="#363636"
       transform="translate(670,603)"
       id="path196" />
    <path
       d="M 0,0 C 1.98,0.99 1.98,0.99 4,2 3.67,4.64 3.34,7.28 3,10 0.70366176,6.5554926 0.45983515,4.0618772 0,0 Z"
       fill="#3a3a3a"
       transform="translate(686,562)"
       id="path198" />
    <path
       d="M 0,0 C 0.66,0.33 1.32,0.66 2,1 1.25,7.75 1.25,7.75 -1,10 -1.125,3.375 -1.125,3.375 0,0 Z"
       fill="#1f2020"
       transform="translate(692,493)"
       id="path200" />
    <path
       d="M 0,0 C 0.66,0.66 1.32,1.32 2,2 1.625,4.125 1.625,4.125 1,6 0.01,6 -0.98,6 -2,6 -2.33,4.35 -2.66,2.7 -3,1 -2.01,0.67 -1.02,0.34 0,0 Z"
       fill="#323232"
       transform="translate(687,472)"
       id="path202" />
    <path
       d="M 0,0 C 1.3161168,0.95336021 2.6277896,1.9128577 3.9375,2.875 4.6683984,3.4086719 5.3992969,3.9423438 6.1523437,4.4921875 8,6 8,6 9,8 8.01,8.33 7.02,8.66 6,9 4.9940676,7.8803014 3.9954151,6.7540588 3,5.625 2.443125,4.9985156 1.88625,4.3720312 1.3125,3.7265625 0,2 0,2 0,0 Z"
       fill="#444443"
       transform="translate(644,407)"
       id="path204" />
    <path
       d="M 0,0 C 0.66,0 1.32,0 2,0 2.1875,3.375 2.1875,3.375 2,7 1.01,7.66 0.02,8.32 -1,9 -0.67,6.03 -0.34,3.06 0,0 Z"
       fill="#d6d5d4"
       transform="translate(692,554)"
       id="path206" />
    <path
       d="M 0,0 C 2.8125,-0.1875 2.8125,-0.1875 6,0 6.99,0.99 7.98,1.98 9,3 6.03,2.67 3.06,2.34 0,2 0,1.34 0,0.68 0,0 Z"
       fill="#3c3b3a"
       transform="translate(479,698)"
       id="path208" />
    <path
       d="M 0,0 C 1.98,0 3.96,0 6,0 5.01,1.485 5.01,1.485 4,3 1.375,3.1875 1.375,3.1875 -1,3 -0.67,2.01 -0.34,1.02 0,0 Z"
       fill="#3c3d3c"
       transform="translate(540,605)"
       id="path210" />
  </g>
</svg>
