<?xml version="1.0" encoding="UTF-8" standalone="no"?>
<svg
   version="1.1"
   width="1024"
   height="1024"
   id="svg212"
   sodipodi:docname="dubbelking_icon.svg"
   inkscape:version="1.2.2 (732a01da63, 2022-12-09)"
   xmlns:inkscape="http://www.inkscape.org/namespaces/inkscape"
   xmlns:sodipodi="http://sodipodi.sourceforge.net/DTD/sodipodi-0.dtd"
   xmlns="http://www.w3.org/2000/svg"
   xmlns:svg="http://www.w3.org/2000/svg">
  <defs
     id="defs216" />
  <sodipodi:namedview
     id="namedview214"
     pagecolor="#ffffff"
     bordercolor="#000000"
     borderopacity="0.25"
     inkscape:showpageshadow="2"
     inkscape:pageopacity="0.0"
     inkscape:pagecheckerboard="0"
     inkscape:deskcolor="#d1d1d1"
     showgrid="false"
     inkscape:zoom="1.1449053"
     inkscape:cx="530.17485"
     inkscape:cy="448.94542"
     inkscape:window-width="1920"
     inkscape:window-height="1009"
     inkscape:window-x="-8"
     inkscape:window-y="-8"
     inkscape:window-maximized="1"
     inkscape:current-layer="svg212" />
  <path
     d="M0 0 C0.66 0 1.32 0 2 0 C10 18.68774704 10 18.68774704 10 24 C11.216875 24.103125 12.43375 24.20625 13.6875 24.3125 C17.47269538 24.81318722 20.00060502 25.50050418 23 28 C25.31654063 31.2051808 27 33.94440737 27 38 C26.33613281 38.00257813 25.67226563 38.00515625 24.98828125 38.0078125 C19.01954571 38.25383605 19.01954571 38.25383605 14.1875 41.5625 C13.43288098 42.69173346 12.70505618 43.83917536 12 45 C11.5359375 45.62519531 11.071875 46.25039063 10.59375 46.89453125 C7.28574655 51.55330277 6.2114203 55.26965417 7 61 C7.10699219 61.79535156 7.21398437 62.59070313 7.32421875 63.41015625 C8.61007136 71.04269421 11.13599742 77.91999677 16 84 C16 84.66 16 85.32 16 86 C16.61875 86.309375 17.2375 86.61875 17.875 86.9375 C19.25 87.625 20.625 88.3125 22 89 C29.7597049 90.38509945 35.45251862 87.93297752 42.1328125 84.08984375 C46.11106221 81.19016583 47.78786236 78.34799468 50 74 C50.66 74 51.32 74 52 74 C52.41612253 71.23083927 52.80847753 68.46176504 53.1875 65.6875 C53.30802734 64.90181641 53.42855469 64.11613281 53.55273438 63.30664062 C53.65263672 62.54931641 53.75253906 61.79199219 53.85546875 61.01171875 C53.95496826 60.31522217 54.05446777 59.61872559 54.15698242 58.90112305 C53.94680553 56.3557926 52.84123321 55.6747403 51 54 C50.953125 51.984375 50.953125 51.984375 52 50 C54.546875 48.578125 54.546875 48.578125 57.75 47.25 C63.58428063 44.54122685 66.43694793 41.87117741 69 36 C69.66 36.33 70.32 36.66 71 37 C71.33 42.61 71.66 48.22 72 54 C73.32 54.33 74.64 54.66 76 55 C77.75 56.4375 77.75 56.4375 79 58 C79 58.66 79 59.32 79 60 C78.30132813 60.33773437 77.60265625 60.67546875 76.8828125 61.0234375 C75.97273437 61.46945312 75.06265625 61.91546875 74.125 62.375 C73.22007812 62.81585938 72.31515625 63.25671875 71.3828125 63.7109375 C68.8400403 65.08653558 67.32130462 66.02448997 66.39794922 68.82788086 C65.21150612 74.40069934 64.47546621 79.87664687 64.125 85.5625 C64.0528125 86.36107422 63.980625 87.15964844 63.90625 87.98242188 C63.45976488 95.19080661 65.49206359 99.97628044 70.0703125 105.49609375 C70.74835938 106.13675781 71.42640625 106.77742188 72.125 107.4375 C73.14980469 108.42556641 73.14980469 108.42556641 74.1953125 109.43359375 C77.66574487 112.44580886 80.68409258 112.46525177 85.15234375 112.39453125 C95.17864515 111.00542776 102.62375988 103.29462862 109 96 C110.23072272 93.92873054 110.23072272 93.92873054 109.9296875 91.0234375 C109.78529233 81.39021676 109.78529233 81.39021676 113.0546875 77.6484375 C115.95604776 75.60487071 118.95141582 73.81602263 122 72 C124.38240531 70.26988819 126.69054228 68.45087009 129 66.625 C131.94905429 64.32746092 134.88683534 62.07544311 138 60 C137.04149868 63.3463467 136.02018281 66.67198792 135 70 C134.79068848 70.71269043 134.58137695 71.42538086 134.36572266 72.15966797 C133.65971849 74.55048886 132.92538397 76.93134409 132.1875 79.3125 C131.85177979 80.47724854 131.85177979 80.47724854 131.50927734 81.66552734 C129.74309055 87.23858709 127.72734032 89.58009311 123 93 C119.25824256 96.24833888 117.24794716 99.96711373 115.125 104.375 C114.81175781 105.00277344 114.49851562 105.63054687 114.17578125 106.27734375 C108.4380857 117.95846895 103.83512925 129.89869617 99.8125 142.25 C99.38399808 143.54705172 98.95496248 144.84392724 98.52539062 146.140625 C94.02065988 157.83651617 94.02065988 157.83651617 92 170 C93.50523589 171.39098623 93.50523589 171.39098623 95.4375 172.5625 C98.9058296 174.81165919 98.9058296 174.81165919 100 177 C100.12327929 179.10148182 100.17558006 181.20743907 100.1875 183.3125 C100.20167969 184.44300781 100.21585938 185.57351563 100.23046875 186.73828125 C100.00074912 189.98939802 99.52642448 192.13478461 98 195 C93.98857105 197.67428597 90.63916243 197.53462467 86 197 C81.99787341 195.9858994 78.14101606 194.6239053 74.25 193.25 C62.92558582 189.45463776 51.81469425 186.7094393 40 185 C39.24058105 184.88430664 38.48116211 184.76861328 37.69873047 184.64941406 C9.75475209 180.58943531 -20.17575553 181.79799211 -48 186 C-49.45182292 186.1953125 -50.90364583 186.390625 -52.35546875 186.5859375 C-64.88647792 188.55308879 -78.63383548 192.31691774 -90 198 C-93.39626824 198.36915959 -95.28730276 198.48287821 -98.15625 196.5390625 C-100.86245714 192.81229419 -100.66112888 189.56054572 -100.625 185.0625 C-100.65722656 184.26392578 -100.68945312 183.46535156 -100.72265625 182.64257812 C-100.7321066 176.93929113 -100.7321066 176.93929113 -98.69042969 174.31982422 C-94.84789979 171 -94.84789979 171 -92 171 C-92.25394531 170.07960938 -92.50789063 169.15921875 -92.76953125 168.2109375 C-94.49986293 161.84694607 -96.12678705 155.54274329 -97.375 149.0625 C-100.74311546 133.22706712 -109.45458336 103.65906248 -122.78125 93.6640625 C-123.3484375 93.32117188 -123.915625 92.97828125 -124.5 92.625 C-129.38121924 88.70333668 -129.93693674 82.67824704 -131.15234375 76.8671875 C-131.8272084 73.78831191 -132.59798051 71.13652615 -133.8125 68.25 C-135.0352451 64.90353972 -135.02137141 64.19612823 -134 61 C-133.33355469 61.556875 -132.66710937 62.11375 -131.98046875 62.6875 C-126.19701915 67.47603449 -120.33873958 72.02198552 -114.21484375 76.37109375 C-112 78 -112 78 -110 80 C-109.92723304 82.16554461 -109.91630438 84.33333685 -109.9375 86.5 C-109.50745291 93.50260015 -107.74992731 96.96891955 -102.734375 101.80078125 C-94.09304011 108.75490708 -94.09304011 108.75490708 -83.625 111.6875 C-79.55690315 110.91596439 -77.26714521 109.4892535 -74 107 C-73.34 107 -72.68 107 -72 107 C-71.56880859 106.13375 -71.56880859 106.13375 -71.12890625 105.25 C-70.41597685 103.82907497 -69.69558512 102.41184749 -68.96484375 101 C-68.45630859 100.01 -68.45630859 100.01 -67.9375 99 C-67.42509766 98.01 -67.42509766 98.01 -66.90234375 97 C-62.44909874 87.12960414 -64.93666696 74.41925834 -68.125 64.5 C-70.86877416 60.84163446 -73.65709495 60.28151297 -78 59 C-77.25 56.625 -77.25 56.625 -76 54 C-75.34 53.690625 -74.68 53.38125 -74 53.0625 C-71.76303998 52.13279559 -71.76303998 52.13279559 -70.875 49.5625 C-69.69173835 44.74493469 -68.81813943 39.89142934 -68 35 C-65 36 -65 36 -63.96484375 37.890625 C-63.62582031 38.66921875 -63.28679687 39.4478125 -62.9375 40.25 C-60.01086983 45.91357135 -55.77419878 47.76880474 -50 50 C-50.58559654 53.25107044 -50.71287788 53.79691362 -53.5625 55.8125 C-56.3063162 57.81329268 -56.3063162 57.81329268 -56.5 61.125 C-55.87626252 65.9589655 -54.55741727 70.39264056 -53 75 C-52.34 75 -51.68 75 -51 75 C-50.06983753 76.3596961 -49.20580596 77.76491884 -48.375 79.1875 C-44.72681509 84.87938555 -40.36689183 87.87770272 -34 90 C-29.35778436 90.53938125 -25.94715084 90.49178986 -21.75 88.3125 C-14.59557467 82.2962787 -9.19326999 76.3212941 -7.64501953 66.82202148 C-6.99683098 59.11339189 -6.70531374 51.70180745 -11.125 45.0625 C-15.66838532 39.74207695 -20.0977034 37.82170198 -27 37 C-27 33.76790942 -26.5233104 31.64479317 -24.46875 29.11328125 C-20.82794665 25.66752094 -18.29271065 23.78838495 -13.25 23.3125 C-10.95433416 23.06908931 -10.95433416 23.06908931 -9 22 C-7.49376901 19.14826388 -6.71961525 16.38352513 -5.90625 13.265625 C-4.58540766 8.50603795 -2.33722077 4.32960569 0 0 Z "
     fill="#191A1C"
     transform="translate(526,221)"
     id="path112" />
  <path
     d="M0 0 C0.33 50.16 0.66 100.32 1 152 C3.64 152.33 6.28 152.66 9 153 C9 153.66 9 154.32 9 155 C1.41 155 -6.18 155 -14 155 C-14.33 150.71 -14.66 146.42 -15 142 C-16.32 143.65 -17.64 145.3 -19 147 C-21.4375 148.73046875 -21.4375 148.73046875 -24 150.1875 C-25.2684375 150.92033203 -25.2684375 150.92033203 -26.5625 151.66796875 C-27.7690625 152.32732422 -27.7690625 152.32732422 -29 153 C-29.62447021 153.35054443 -30.24894043 153.70108887 -30.89233398 154.06225586 C-38.22238635 157.32354755 -50.669554 155.91243738 -58.0625 153.4375 C-70.73420677 147.7881942 -78.74818566 139.21174424 -83.875 126.3125 C-84.60428369 124.21550244 -85.31539918 122.11200738 -86 120 C-86.24621094 119.32710937 -86.49242187 118.65421875 -86.74609375 117.9609375 C-89.64147195 108.89540852 -89.0196754 96.90804244 -86 88 C-85.731875 87.14148438 -85.46375 86.28296875 -85.1875 85.3984375 C-79.92891836 69.49122804 -69.15917055 59.14300867 -54.37890625 51.67578125 C-46.11401238 48.17578905 -36.61459852 47.15280439 -27.99609375 49.98828125 C-23.41442292 52.19376512 -20.02125394 54.78299685 -16 58 C-16 43.15 -16 28.3 -16 13 C-18.56893838 11.71553081 -20.76576337 11.67022856 -23.625 11.4375 C-24.62789063 11.35371094 -25.63078125 11.26992188 -26.6640625 11.18359375 C-27.82035156 11.09271484 -27.82035156 11.09271484 -29 11 C-29.5625 9.0625 -29.5625 9.0625 -30 7 C-28.39537103 5.39537103 -26.53610163 5.84089175 -24.3125 5.75 C-18.11063627 5.27106026 -12.82336548 3.32921566 -7.06640625 1.05859375 C-4 0 -4 0 0 0 Z "
     fill="#1E1E1E"
     transform="translate(516,453)"
     id="path114" />
  <path
     d="M0 0 C-1.52367187 1.21623047 -1.52367187 1.21623047 -3.078125 2.45703125 C-11.67640316 9.3574667 -20.01215215 16.39809502 -28 24 C-28.78761719 24.73476563 -29.57523437 25.46953125 -30.38671875 26.2265625 C-48.2577 43.38020942 -60.44259445 66.17898312 -69.265625 89.1015625 C-69.89631985 90.73197579 -70.5548555 92.3515711 -71.21875 93.96875 C-83.47521795 126.28125641 -79.55364177 172.45269623 -65.6875 203.6875 C-64.79430564 205.45966588 -63.89805946 207.23029459 -63 209 C-62.34096335 210.44677523 -61.68788733 211.8962727 -61.0390625 213.34765625 C-52.76926791 231.67616087 -41.76417932 247.33221807 -28 262 C-27.53352051 262.50047852 -27.06704102 263.00095703 -26.58642578 263.51660156 C7.3971067 299.69585589 54.31466162 316.18793294 103.109375 317.88671875 C104.39328125 317.92410156 105.6771875 317.96148438 107 318 C107 321.3 107 324.6 107 328 C68.1183706 334.41077804 25.49506173 320.49662921 -6.1875 298.1875 C-23.32660117 285.72629546 -38.41591346 271.02013392 -51 254 C-51.78246094 252.95070313 -52.56492187 251.90140625 -53.37109375 250.8203125 C-59.48321058 242.3247879 -64.32588306 233.34367154 -69 224 C-69.56847656 222.88625 -70.13695312 221.7725 -70.72265625 220.625 C-74.9194145 212.03828236 -77.58659971 203.21275062 -80 194 C-80.18836426 193.28763184 -80.37672852 192.57526367 -80.57080078 191.84130859 C-87.10555985 166.75995422 -89.46628776 138.35386316 -83 113 C-82.79503906 111.88238281 -82.59007812 110.76476562 -82.37890625 109.61328125 C-79.40726506 93.42614259 -72.76292657 78.41202558 -65 64 C-64.67918457 63.39317383 -64.35836914 62.78634766 -64.02783203 62.16113281 C-56.56713052 48.1187967 -46.91520766 36.45305847 -36 25 C-35.23429687 24.16984375 -34.46859375 23.3396875 -33.6796875 22.484375 C-28.59493149 17.14107208 -23.08368397 12.55220396 -17.25 8.0625 C-16.5286084 7.5063501 -15.8072168 6.9502002 -15.06396484 6.37719727 C-4.58309765 -1.52769922 -4.58309765 -1.52769922 0 0 Z "
     fill="#1E1D1E"
     transform="translate(412,400)"
     id="path116" />
  <path
     d="M0 0 C5.67091254 4.08133857 10.41104083 9.15212798 12.625 15.859375 C12.90588379 18.68464661 12.90588379 18.68464661 12.94726562 21.80786133 C12.96648071 22.98290726 12.9856958 24.15795319 13.00549316 25.36860657 C13.01399292 26.63013046 13.02249268 27.89165436 13.03125 29.19140625 C13.04265015 30.49712082 13.05405029 31.80283539 13.0657959 33.14811707 C13.08675706 35.90938869 13.09848051 38.67054488 13.10546875 41.43188477 C13.11642533 44.95270219 13.1644696 48.4719675 13.22141266 51.99229908 C13.26785184 55.37113549 13.27157589 58.74976757 13.28125 62.12890625 C13.3059436 63.38435745 13.33063721 64.63980865 13.3560791 65.93330383 C13.32173663 72.71061254 12.82492502 77.07553399 8.2623291 82.25028992 C7.7220105 82.78128799 7.18169189 83.31228607 6.625 83.859375 C5.70781189 84.78548332 5.70781189 84.78548332 4.77209473 85.7303009 C0.88187506 89.43729414 -2.54643355 90.31894788 -7.875 90.546875 C-16.10223279 90.1193629 -20.4929919 87.03047979 -26.0625 81.234375 C-36.88273672 68.09198701 -37.61583768 51.12678734 -36.375 34.859375 C-34.53724457 21.24823661 -29.2529459 9.0041728 -18.25 0.421875 C-12.70914605 -2.39155195 -5.60849117 -2.69355168 0 0 Z "
     fill="#F5F5F5"
     transform="translate(488.375,509.140625)"
     id="path118" />
  <path
     d="M0 0 C0 20.13 0 40.26 0 61 C2.64 58.69 5.28 56.38 8 54 C8.9796875 53.15953125 9.959375 52.3190625 10.96875 51.453125 C11.8040625 50.72609375 12.639375 49.9990625 13.5 49.25 C14.3559375 48.51265625 15.211875 47.7753125 16.09375 47.015625 C18.34355976 45.0991049 18.34355976 45.0991049 18 42 C15.69 41.67 13.38 41.34 11 41 C11 40.01 11 39.02 11 38 C19.91 38 28.82 38 38 38 C36 40 36 40 33.36328125 41.1796875 C28.97240178 43.55616814 25.75917657 46.67195411 22.1875 50.125 C21.135625 51.12672241 21.135625 51.12672241 20.0625 52.14868164 C14.96376492 57.02063611 9.92490597 61.95197138 5 67 C6.53118931 72.05581375 9.61188915 75.33490473 13.0625 79.1875 C13.6503125 79.85313965 14.238125 80.5187793 14.84375 81.20458984 C16.02185031 82.53639744 17.20294624 83.86556191 18.38720703 85.19189453 C19.73435487 86.70218471 21.06981272 88.22289161 22.40234375 89.74609375 C24.56580992 92.19963359 26.77273775 94.60422777 29 97 C29.495 97.54495117 29.99 98.08990234 30.5 98.65136719 C39.03803406 108.30562106 39.03803406 108.30562106 51 112 C51.33 112.99 51.66 113.98 52 115 C40.78 115 29.56 115 18 115 C18.495 113.515 18.495 113.515 19 112 C20.65 112.33 22.3 112.66 24 113 C21.65657091 107.70467252 18.49307713 103.64801374 14.8125 99.25 C9.81674936 93.20973758 4.89825926 87.12282408 0 81 C0 91.23 0 101.46 0 112 C1.98 112.66 3.96 113.32 6 114 C6 114.33 6 114.66 6 115 C-3.24 115 -12.48 115 -22 115 C-21.67 114.01 -21.34 113.02 -21 112 C-18.03 111.505 -18.03 111.505 -15 111 C-15 78.99 -15 46.98 -15 14 C-18.3 13.34 -21.6 12.68 -25 12 C-25 10.68 -25 9.36 -25 8 C-24.34515625 7.92523438 -23.6903125 7.85046875 -23.015625 7.7734375 C-16.05065366 6.77000943 -10.60723962 4.59795339 -4.43359375 1.2421875 C-2 0 -2 0 0 0 Z "
     fill="#202121"
     transform="translate(561,493)"
     id="path120" />
  <path
     d="M0 0 C27.25997909 17.82383248 43.23886784 55.28414896 49.9375 85.8125 C56.12162031 117.33440336 52.08087524 153.00140164 38 182 C37.70432129 182.61182129 37.40864258 183.22364258 37.10400391 183.85400391 C26.91698118 204.85534184 15.015118 223.68712366 -1.40283203 240.37207031 C-2.83630499 241.8331522 -4.24595386 243.31751822 -5.65234375 244.8046875 C-11.89152422 251.29667107 -18.72470235 256.74390135 -26 262 C-26.55220215 262.40718262 -27.1044043 262.81436523 -27.67333984 263.23388672 C-38.94871043 271.48503599 -51.27049224 277.33172196 -64 283 C-64.69641602 283.31984863 -65.39283203 283.63969727 -66.11035156 283.96923828 C-102.08757555 300.30112829 -148.25410511 300.32448975 -185 287 C-208.42489464 278.19583531 -228.09733538 264.3083853 -246 247 C-246.73605469 246.31550781 -247.47210938 245.63101563 -248.23046875 244.92578125 C-265.5308809 228.45413136 -278.71613698 204.57006533 -286 182 C-285.67 181.01 -285.34 180.02 -285 179 C-284.52691406 179.969375 -284.05382812 180.93875 -283.56640625 181.9375 C-260.42011502 229.02495766 -228.3381047 263.90636794 -178 282 C-161.36946134 287.54978383 -145.11757255 289.56958944 -127.6875 289.4375 C-126.83215668 289.43445862 -125.97681335 289.43141724 -125.09555054 289.42828369 C-112.30432381 289.36109268 -100.33815417 288.58363926 -88 285 C-86.35854267 284.56981811 -84.71659662 284.14149766 -83.07421875 283.71484375 C-39.96466807 272.06832866 -1.7948004 244.21591069 20.84594727 205.63232422 C21.914505 203.76386913 22.96289814 201.8860851 24 200 C24.50974365 199.0733252 24.50974365 199.0733252 25.02978516 198.12792969 C45.1304183 161.00280046 54.31016508 116.15864315 42.30078125 74.890625 C34.48519159 49.76852236 22.57797895 27.63290856 5 8 C0 2.33926737 0 2.33926737 0 0 Z "
     fill="#2C2D2D"
     transform="translate(644,407)"
     id="path122" />
  <path
     d="M0 0 C2.45746214 2.21158467 3.74133039 4.23332429 5.05859375 7.25390625 C5.43798096 8.09928955 5.81736816 8.94467285 6.20825195 9.81567383 C6.81672974 11.17535278 6.81672974 11.17535278 7.4375 12.5625 C26.86616119 54.49167558 61.35107238 85.37693851 104.359375 101.69140625 C122.77585271 108.31106294 141.5971846 110.87733887 161.0625 111.5625 C162.21427734 111.60568359 163.36605469 111.64886719 164.55273438 111.69335938 C167.36839491 111.79850852 170.18412976 111.90065393 173 112 C173 112.33 173 112.66 173 113 C172.43410156 113.13277344 171.86820313 113.26554688 171.28515625 113.40234375 C170.18494141 113.66724609 170.18494141 113.66724609 169.0625 113.9375 C167.96615234 114.19853516 167.96615234 114.19853516 166.84765625 114.46484375 C165.00030102 114.83887569 165.00030102 114.83887569 164 116 C146.91991457 117.14435468 129.49554675 116.80830596 113 112 C112.19626953 111.76925781 111.39253906 111.53851562 110.56445312 111.30078125 C70.61264515 99.43763639 34.42304311 70.73068209 14.18261719 34.22216797 C0 7.57266722 0 7.57266722 0 0 Z "
     fill="#242423"
     transform="translate(358,586)"
     id="path124" />
  <path
     d="M0 0 C24.83425208 16.23778021 40.64558962 49.87433403 47.94140625 77.57421875 C49.27547898 84.12711689 48.84527242 89.58412975 47 96 C46.67 96 46.34 96 46 96 C45.9484375 95.195625 45.896875 94.39125 45.84375 93.5625 C42.77947144 61.80543124 25.97242243 31.42417482 5 8 C0 2.33926737 0 2.33926737 0 0 Z "
     fill="#2D2D2D"
     transform="translate(644,407)"
     id="path126" />
  <path
     d="M0 0 C2.45746214 2.21158467 3.74133039 4.23332429 5.05859375 7.25390625 C5.43798096 8.09928955 5.81736816 8.94467285 6.20825195 9.81567383 C6.81672974 11.17535278 6.81672974 11.17535278 7.4375 12.5625 C16.59171379 32.31829446 29.88292329 48.60546877 44 65 C42.68 65.99 41.36 66.98 40 68 C21.41071867 50.81270357 8.10147199 26.80787415 0 3 C0 2.01 0 1.02 0 0 Z "
     fill="#272626"
     transform="translate(358,586)"
     id="path128" />
  <path
     d="M0 0 C0.66 0.33 1.32 0.66 2 1 C4.39899598 9.58952496 4.41954765 18.71143083 4.4375 27.5625 C4.44056152 28.22299347 4.44362305 28.88348694 4.44677734 29.56399536 C4.46379953 43.75858678 2.19600565 57.16707556 -1 71 C-2.98 71.495 -2.98 71.495 -5 72 C-5.18950114 67.45197266 -4.75688992 63.86615453 -3.57446289 59.43847656 C-0.64008898 46.98266415 -0.77529891 34.45851422 -0.9375 21.75 C-0.96521167 19.09980036 -0.98984252 16.44965535 -1.00868225 13.79937744 C-1.02085783 12.16663569 -1.03838011 10.5339225 -1.06199646 8.90130615 C-1.09093427 5.65714738 -1.03403576 3.10210728 0 0 Z "
     fill="#292A2A"
     transform="translate(692,493)"
     id="path130" />
  <path
     d="M0 0 C5.1155934 -0.08404589 9.86567002 0.16972021 14.9375 0.9375 C26.22012059 2.5209767 37.6260051 2.66531068 49 3 C49 3.33 49 3.66 49 4 C48.43410156 4.13277344 47.86820313 4.26554688 47.28515625 4.40234375 C46.18494141 4.66724609 46.18494141 4.66724609 45.0625 4.9375 C44.33160156 5.11152344 43.60070312 5.28554688 42.84765625 5.46484375 C41.00030102 5.83887569 41.00030102 5.83887569 40 7 C35.74766986 7.26875942 31.48905858 7.2714816 27.22924805 7.29516602 C25.10201598 7.31218387 22.97641981 7.35601493 20.84960938 7.40039062 C12.86866435 7.48942361 6.19008286 6.82814853 -1 3 C-0.67 2.01 -0.34 1.02 0 0 Z "
     fill="#1F201F"
     transform="translate(482,695)"
     id="path132" />
  <path
     d="M0 0 C0.66 0.33 1.32 0.66 2 1 C1.12479376 6.85394354 -1.82231622 10.62805543 -5.1875 15.375 C-5.81027832 16.25897461 -6.43305664 17.14294922 -7.07470703 18.05371094 C-13.05720437 26.37183051 -19.77012033 33.76318631 -27 41 C-27.8765625 41.89074219 -28.753125 42.78148437 -29.65625 43.69921875 C-31.4232554 45.48177878 -33.20028795 47.25059046 -35 49 C-35.495 47.515 -35.495 47.515 -36 46 C-34.84765625 44.23828125 -34.84765625 44.23828125 -33.0625 42.3125 C-32.08023438 41.23935547 -32.08023438 41.23935547 -31.078125 40.14453125 C-29.20087027 38.20728905 -27.27025297 36.35492981 -25.3125 34.5 C-15.20426017 24.50929785 -7.44318751 12.02939396 0 0 Z "
     fill="#2A2A2A"
     transform="translate(668,608)"
     id="path134" />
  <path
     d="M0 0 C15.54929374 10.1668459 27.51124805 28.24884433 35 45 C34.34 45.66 33.68 46.32 33 47 C33 45.68 33 44.36 33 43 C32.38970947 42.90807373 31.77941895 42.81614746 31.15063477 42.72143555 C28.43552758 41.81064638 27.97272323 40.92368342 26.58984375 38.45703125 C25.94934082 37.35077393 25.94934082 37.35077393 25.29589844 36.22216797 C24.84762695 35.42697754 24.39935547 34.63178711 23.9375 33.8125 C17.44352045 22.73751318 9.88520542 12.86930794 1.14453125 3.453125 C0 2 0 2 0 0 Z "
     fill="#353535"
     transform="translate(644,407)"
     id="path136" />
  <path
     d="M0 0 C2.48898429 2.23515146 3.78144962 4.30961552 5.12890625 7.359375 C5.51981445 8.22111328 5.91072266 9.08285156 6.31347656 9.97070312 C6.7256543 10.88787109 7.13783203 11.80503906 7.5625 12.75 C11.09749686 20.47865581 14.94085536 27.54358772 20.12719727 34.29199219 C21.359375 35.96875 21.359375 35.96875 23 39 C22.265625 41.90625 22.265625 41.90625 21 44 C17.00767892 39.48286676 14.38260218 34.44041259 11.625 29.125 C10.90026489 27.734021 10.90026489 27.734021 10.16088867 26.31494141 C0 6.53234808 0 6.53234808 0 0 Z "
     fill="#2D2C2C"
     transform="translate(358,586)"
     id="path138" />
  <path
     d="M0 0 C-1.01578125 0.81082031 -2.0315625 1.62164062 -3.078125 2.45703125 C-11.67158084 9.35545724 -19.99077455 16.43067519 -28 24 C-29.32 23.34 -30.64 22.68 -32 22 C-27.64901056 16.57503215 -23.0608357 12.40352403 -17.5 8.25 C-16.76652344 7.68667969 -16.03304688 7.12335938 -15.27734375 6.54296875 C-4.60305833 -1.53435278 -4.60305833 -1.53435278 0 0 Z "
     fill="#383838"
     transform="translate(412,400)"
     id="path140" />
  <path
     d="M0 0 C0 0.66 0 1.32 0 2 C0.66 2.66 1.32 3.32 2 4 C-11.43226801 7.80158528 -25.16287846 7.11901719 -39 7 C-39 6.67 -39 6.34 -39 6 C-32.07 6 -25.14 6 -18 6 C-17.67 5.34 -17.34 4.68 -17 4 C-16.34 3.67 -15.68 3.34 -15 3 C-21.27 2.67 -27.54 2.34 -34 2 C-34 1.67 -34 1.34 -34 1 C-29.80080999 0.85672455 -25.60159118 0.71433404 -21.40234375 0.57275391 C-19.97460118 0.5244931 -18.54686668 0.47599293 -17.11914062 0.42724609 C-15.06382299 0.35711339 -13.00847762 0.28784908 -10.953125 0.21875 C-9.09929199 0.1559082 -9.09929199 0.1559082 -7.20800781 0.09179688 C-4.80612685 0.02306725 -2.40286411 0 0 0 Z "
     fill="#343434"
     transform="translate(540,696)"
     id="path142" />
  <path
     d="M0 0 C1.16660156 0.00322266 2.33320312 0.00644531 3.53515625 0.00976562 C4.75847656 0.01814453 5.98179687 0.02652344 7.2421875 0.03515625 C8.47324219 0.03966797 9.70429687 0.04417969 10.97265625 0.04882812 C14.02088142 0.06064295 17.06901064 0.07711597 20.1171875 0.09765625 C20.1171875 0.42765625 20.1171875 0.75765625 20.1171875 1.09765625 C19.55128906 1.23042969 18.98539063 1.36320313 18.40234375 1.5 C17.66886719 1.67660156 16.93539062 1.85320313 16.1796875 2.03515625 C15.44878906 2.20917969 14.71789062 2.38320313 13.96484375 2.5625 C12.11748852 2.93653194 12.11748852 2.93653194 11.1171875 4.09765625 C9.6284689 4.18435057 8.1357425 4.20469119 6.64453125 4.1953125 C5.74541016 4.19208984 4.84628906 4.18886719 3.91992188 4.18554688 C2.97439453 4.17716797 2.02886719 4.16878906 1.0546875 4.16015625 C0.10529297 4.15564453 -0.84410156 4.15113281 -1.82226562 4.14648438 C-4.17584315 4.13465735 -6.52929727 4.1181765 -8.8828125 4.09765625 C-8.5528125 3.10765625 -8.2228125 2.11765625 -7.8828125 1.09765625 C-5.16879956 -0.25935022 -3.03434934 -0.01472985 0 0 Z "
     fill="#171717"
     transform="translate(510.8828125,697.90234375)"
     id="path144" />
  <path
     d="M0 0 C0.66 0.33 1.32 0.66 2 1 C-2.1761967 10.09172009 -10.95342349 17.06810556 -18 24 C-18.33 23.01 -18.66 22.02 -19 21 C-17.84765625 19.23828125 -17.84765625 19.23828125 -16.0625 17.3125 C-15.41796875 16.61125 -14.7734375 15.91 -14.109375 15.1875 C-11.38182492 12.35892955 -8.60086879 9.58862228 -5.80078125 6.83203125 C-3.68853476 4.68312973 -1.80733925 2.40978566 0 0 Z "
     fill="#242424"
     transform="translate(651,633)"
     id="path146" />
  <path
     d="M0 0 C0.66 0.33 1.32 0.66 2 1 C2.90794026 4.31335518 3.11973427 7.44118745 3.09765625 10.86328125 C3.09282227 12.19262695 3.09282227 12.19262695 3.08789062 13.54882812 C3.07951172 14.46083984 3.07113281 15.37285156 3.0625 16.3125 C3.05798828 17.24384766 3.05347656 18.17519531 3.04882812 19.13476562 C3.03709234 21.42324373 3.02067363 23.71158808 3 26 C2.01 26 1.02 26 0 26 C-2.53658537 7.6097561 -2.53658537 7.6097561 0 0 Z "
     fill="#212222"
     transform="translate(692,493)"
     id="path148" />
  <path
     d="M0 0 C7.59 0 15.18 0 23 0 C23 0.66 23 1.32 23 2 C23.99 2.66 24.98 3.32 26 4 C12.65292782 4.21840664 -0.66815423 3.56539296 -14 3 C-14 2.67 -14 2.34 -14 2 C-9.38 2 -4.76 2 0 2 C0 1.34 0 0.68 0 0 Z "
     fill="#212121"
     transform="translate(533,400)"
     id="path150" />
  <path
     d="M0 0 C-1.48931355 2.9786271 -2.47394296 4.71451982 -5 7 C-8.70076611 7.44259883 -12.29036293 7.28781667 -16 7 C-16.5625 5.0625 -16.5625 5.0625 -17 3 C-15.28132657 1.28132657 -12.90786781 1.67079401 -10.5625 1.5 C-6.83889031 1.2281328 -3.61810168 0 0 0 Z "
     fill="#2F3031"
     transform="translate(503,457)"
     id="path152" />
  <path
     d="M0 0 C8.16895949 5.34124274 13.86091861 12.5307843 20 20 C19.01 20.99 18.02 21.98 17 23 C16.35933594 22.154375 15.71867188 21.30875 15.05859375 20.4375 C10.61571637 14.60288827 6.17813659 8.86679675 1.1796875 3.48828125 C0 2 0 2 0 0 Z "
     fill="#343535"
     transform="translate(644,407)"
     id="path154" />
  <path
     d="M0 0 C0.66 0.99 1.32 1.98 2 3 C0.12922332 3.53580497 -1.7468917 4.05298887 -3.625 4.5625 C-4.66914062 4.85253906 -5.71328125 5.14257812 -6.7890625 5.44140625 C-10.19022902 6.03309337 -12.65448342 5.75851802 -16 5 C-15.4375 3.0625 -15.4375 3.0625 -14 1 C-9.38556286 -0.08574991 -4.72507483 -0.3705941 0 0 Z "
     fill="#232323"
     transform="translate(555,694)"
     id="path156" />
  <path
     d="M0 0 C2.39614126 -0.05425226 4.79103853 -0.09379027 7.1875 -0.125 C8.19780273 -0.15013672 8.19780273 -0.15013672 9.22851562 -0.17578125 C13.28807807 -0.21538674 16.34998815 0.19979998 20 2 C18.625 4 18.625 4 16 6 C12.6419531 6.35791096 9.36463643 6.23115823 6 6 C6.66 4.68 7.32 3.36 8 2 C5.36 1.67 2.72 1.34 0 1 C0 0.67 0 0.34 0 0 Z "
     fill="#2B2C2E"
     transform="translate(470,502)"
     id="path158" />
  <path
     d="M0 0 C0.66 0 1.32 0 2 0 C2.25706972 5.91260345 1.2982126 11.23918159 0 17 C-1.32 17.33 -2.64 17.66 -4 18 C-4.39873011 11.88613837 -3.12115707 6.73701549 -1 1 C-0.67 0.67 -0.34 0.34 0 0 Z "
     fill="#272626"
     transform="translate(691,547)"
     id="path160" />
  <path
     d="M0 0 C1.99701936 0.26556108 3.97764818 0.64787339 5.953125 1.04296875 C5.31375 1.33171875 4.674375 1.62046875 4.015625 1.91796875 C1.80106421 2.87120326 1.80106421 2.87120326 0.953125 5.04296875 C2.4071875 5.22859375 2.4071875 5.22859375 3.890625 5.41796875 C5.4065625 5.72734375 5.4065625 5.72734375 6.953125 6.04296875 C7.283125 6.70296875 7.613125 7.36296875 7.953125 8.04296875 C2.57319664 7.70306042 -1.57961047 7.35739082 -6.046875 4.04296875 C-4.28243726 1.61686685 -3.12317824 0.0655629 0 0 Z "
     fill="#202020"
     transform="translate(480.046875,692.95703125)"
     id="path162" />
  <path
     d="M0 0 C0.99 0.33 1.98 0.66 3 1 C1.61811547 4.21043882 0.07578097 6.04936365 -2.625 8.25 C-3.25664062 8.77078125 -3.88828125 9.2915625 -4.5390625 9.828125 C-5.02117187 10.21484375 -5.50328125 10.6015625 -6 11 C-6.99 10.01 -7.98 9.02 -9 8 C-6.03 5.36 -3.06 2.72 0 0 Z "
     fill="#2D2D2D"
     transform="translate(389,413)"
     id="path164" />
  <path
     d="M0 0 C1.22589844 0.15275391 1.22589844 0.15275391 2.4765625 0.30859375 C3.41628906 0.43427734 3.41628906 0.43427734 4.375 0.5625 C4.375 1.2225 4.375 1.8825 4.375 2.5625 C-6.56471819 4.02810818 -17.61454106 3.65720423 -28.625 3.5625 C-28.625 3.2325 -28.625 2.9025 -28.625 2.5625 C-21.695 2.5625 -14.765 2.5625 -7.625 2.5625 C-7.295 1.9025 -6.965 1.2425 -6.625 0.5625 C-4.10446405 -0.69776798 -2.7707902 -0.35624445 0 0 Z "
     fill="#3E3D3D"
     transform="translate(529.625,699.4375)"
     id="path166" />
  <path
     d="M0 0 C2.44787699 2.20400382 3.73898358 4.2163391 5.04296875 7.23046875 C5.39423828 8.03291016 5.74550781 8.83535156 6.10742188 9.66210938 C6.46384766 10.49548828 6.82027344 11.32886719 7.1875 12.1875 C7.55552734 13.03248047 7.92355469 13.87746094 8.30273438 14.74804688 C9.2081722 16.82937797 10.10697791 18.91331882 11 21 C10.01 21.33 9.02 21.66 8 22 C6.65791246 18.89954577 5.32786246 15.79407011 4 12.6875 C3.6184375 11.80642578 3.236875 10.92535156 2.84375 10.01757812 C2.4828125 9.17001953 2.121875 8.32246094 1.75 7.44921875 C1.41484375 6.66893311 1.0796875 5.88864746 0.734375 5.0847168 C0 3 0 3 0 0 Z "
     fill="#484948"
     transform="translate(358,586)"
     id="path168" />
  <path
     d="M0 0 C0 1.32 0 2.64 0 4 C-5.44893869 5.19876651 -8.22169095 4.91360308 -13 2 C-13 1.67 -13 1.34 -13 1 C-11.58622218 0.63447197 -10.16879424 0.28304505 -8.75 -0.0625 C-7.96109375 -0.25972656 -7.1721875 -0.45695313 -6.359375 -0.66015625 C-3.89605178 -1.01497267 -2.34395868 -0.76877544 0 0 Z "
     fill="#333333"
     transform="translate(564,692)"
     id="path170" />
  <path
     d="M0 0 C1.258125 -0.04125 2.51625 -0.0825 3.8125 -0.125 C4.52019531 -0.14820313 5.22789062 -0.17140625 5.95703125 -0.1953125 C8 0 8 0 11 2 C10.01 2.495 10.01 2.495 9 3 C9 3.99 9 4.98 9 6 C5.58978257 5.21302675 2.31114834 4.12880057 -1 3 C-0.67 2.01 -0.34 1.02 0 0 Z "
     fill="#181A19"
     transform="translate(482,695)"
     id="path172" />
  <path
     d="M0 0 C0.66 0.33 1.32 0.66 2 1 C1.55269531 1.43570313 1.10539063 1.87140625 0.64453125 2.3203125 C-2.30841539 5.22918531 -5.1426841 8.09854952 -7.6875 11.375 C-10.06970461 14.07912415 -10.66726132 14.39659889 -14 15 C-9.59156563 9.70987876 -4.92440206 4.81191572 0 0 Z "
     fill="#F0F0EF"
     transform="translate(579,546)"
     id="path174" />
  <path
     d="M0 0 C3.53586014 3.17320782 5.58578031 5.16743695 6 10 C2.19118361 8.55527654 0.70257114 6.67396929 -1 3 C-0.67 2.01 -0.34 1.02 0 0 Z "
     fill="#2F2F2F"
     transform="translate(663,428)"
     id="path176" />
  <path
     d="M0 0 C0.66 0 1.32 0 2 0 C2.08159574 4.16138263 1.98248524 7.9472484 1 12 C-1.8086289 9.1913711 -1.72711179 6.88865706 -2 3 C-1.34 2.01 -0.68 1.02 0 0 Z "
     fill="#20201F"
     transform="translate(691,547)"
     id="path178" />
  <path
     d="M0 0 C0 1.65 0 3.3 0 5 C-2.31 5.66 -4.62 6.32 -7 7 C-7 3 -7 3 -5 1 C-2 0 -2 0 0 0 Z "
     fill="#323233"
     transform="translate(585,683)"
     id="path180" />
  <path
     d="M0 0 C0.93065133 2.60582371 1.14917407 3.64198224 0.0625 6.25 C-0.4634375 7.11625 -0.4634375 7.11625 -1 8 C-1.99 8 -2.98 8 -4 8 C-3.67 5.69 -3.34 3.38 -3 1 C-2.01 0.67 -1.02 0.34 0 0 Z "
     fill="#262626"
     transform="translate(685,575)"
     id="path182" />
  <path
     d="M0 0 C-2.58926331 2.58926331 -4.02705279 2.37398043 -7.625 2.625 C-8.62789062 2.69976563 -9.63078125 2.77453125 -10.6640625 2.8515625 C-11.82035156 2.92503906 -11.82035156 2.92503906 -13 3 C-9.04664037 -1.2504329 -5.53545836 -1.42340358 0 0 Z "
     fill="#EEEEEC"
     transform="translate(558,691)"
     id="path184" />
  <path
     d="M0 0 C2.5 1.3125 2.5 1.3125 5 3 C5 6 5 6 3.5 7.6875 C3.005 8.120625 2.51 8.55375 2 9 C0.50178941 5.62902617 0 3.79557881 0 0 Z "
     fill="#292929"
     transform="translate(391,282)"
     id="path186" />
  <path
     d="M0 0 C2.64 0 5.28 0 8 0 C7.01 0.495 7.01 0.495 6 1 C6 1.66 6 2.32 6 3 C3.69 3.33 1.38 3.66 -1 4 C-0.67 2.68 -0.34 1.36 0 0 Z "
     fill="#424243"
     transform="translate(487,459)"
     id="path188" />
  <path
     d="M0 0 C0 0.66 0 1.32 0 2 C-5.625 5 -5.625 5 -9 5 C-9 4.34 -9 3.68 -9 3 C-5.63316085 0.56839395 -4.26649636 0 0 0 Z "
     fill="#E9E9E8"
     transform="translate(608,677)"
     id="path190" />
  <path
     d="M0 0 C0.99 0.33 1.98 0.66 3 1 C4.1875 4.0625 4.1875 4.0625 5 7 C3.68 7 2.36 7 1 7 C0.67 4.69 0.34 2.38 0 0 Z "
     fill="#363739"
     transform="translate(458,256)"
     id="path192" />
  <path
     d="M0 0 C0.66 0.99 1.32 1.98 2 3 C-1.75 6 -1.75 6 -4 6 C-3.6875 4.125 -3.6875 4.125 -3 2 C-2.01 1.34 -1.02 0.68 0 0 Z "
     fill="#262727"
     transform="translate(618,664)"
     id="path194" />
  <path
     d="M0 0 C0.99 0.33 1.98 0.66 3 1 C2.25 5.75 2.25 5.75 0 8 C-1.125 6.25 -1.125 6.25 -2 4 C-1.125 1.75 -1.125 1.75 0 0 Z "
     fill="#363636"
     transform="translate(670,603)"
     id="path196" />
  <path
     d="M0 0 C1.98 0.99 1.98 0.99 4 2 C3.67 4.64 3.34 7.28 3 10 C0.70366176 6.55549263 0.45983515 4.06187717 0 0 Z "
     fill="#3A3A3A"
     transform="translate(686,562)"
     id="path198" />
  <path
     d="M0 0 C0.66 0.33 1.32 0.66 2 1 C1.25 7.75 1.25 7.75 -1 10 C-1.125 3.375 -1.125 3.375 0 0 Z "
     fill="#1F2020"
     transform="translate(692,493)"
     id="path200" />
  <path
     d="M0 0 C0.66 0.66 1.32 1.32 2 2 C1.625 4.125 1.625 4.125 1 6 C0.01 6 -0.98 6 -2 6 C-2.33 4.35 -2.66 2.7 -3 1 C-2.01 0.67 -1.02 0.34 0 0 Z "
     fill="#323232"
     transform="translate(687,472)"
     id="path202" />
  <path
     d="M0 0 C1.31611677 0.95336021 2.62778961 1.91285774 3.9375 2.875 C4.66839844 3.40867187 5.39929688 3.94234375 6.15234375 4.4921875 C8 6 8 6 9 8 C8.01 8.33 7.02 8.66 6 9 C4.99406757 7.8803014 3.9954151 6.7540588 3 5.625 C2.443125 4.99851562 1.88625 4.37203125 1.3125 3.7265625 C0 2 0 2 0 0 Z "
     fill="#444443"
     transform="translate(644,407)"
     id="path204" />
  <path
     d="M0 0 C0.66 0 1.32 0 2 0 C2.1875 3.375 2.1875 3.375 2 7 C1.01 7.66 0.02 8.32 -1 9 C-0.67 6.03 -0.34 3.06 0 0 Z "
     fill="#D6D5D4"
     transform="translate(692,554)"
     id="path206" />
  <path
     d="M0 0 C2.8125 -0.1875 2.8125 -0.1875 6 0 C6.99 0.99 7.98 1.98 9 3 C6.03 2.67 3.06 2.34 0 2 C0 1.34 0 0.68 0 0 Z "
     fill="#3C3B3A"
     transform="translate(479,698)"
     id="path208" />
  <path
     d="M0 0 C1.98 0 3.96 0 6 0 C5.01 1.485 5.01 1.485 4 3 C1.375 3.1875 1.375 3.1875 -1 3 C-0.67 2.01 -0.34 1.02 0 0 Z "
     fill="#3C3D3C"
     transform="translate(540,605)"
     id="path210" />
</svg>
